<svg viewBox="0 0 100 100" xmlns="http://www.w3.org/2000/svg">
  <!-- Lente di ingrandimento -->
  <circle cx="38" cy="38" r="22" fill="none" stroke="#2d5016" stroke-width="5"/>
  <line x1="54" y1="54" x2="70" y2="70" stroke="#2d5016" stroke-width="5" stroke-linecap="round"/>
  
  <!-- Pianta dentro la lente -->
  <!-- Stelo -->
  <line x1="38" y1="45" x2="38" y2="30" stroke="#4a7c2c" stroke-width="2.5" stroke-linecap="round"/>
  
  <!-- Foglie -->
  <ellipse cx="33" cy="35" rx="5" ry="8" fill="#5d9c3b" transform="rotate(-30 33 35)"/>
  <ellipse cx="43" cy="37" rx="5" ry="8" fill="#6fb346" transform="rotate(35 43 37)"/>
  
  <!-- Fiore -->
  <circle cx="38" cy="28" r="2" fill="#f9d71c"/>
  
  <!-- Petali -->
  <ellipse cx="38" cy="24" rx="2.5" ry="3.5" fill="#e85d75"/>
  <ellipse cx="42" cy="26" rx="2.5" ry="3.5" fill="#e85d75" transform="rotate(72 38 28)"/>
  <ellipse cx="41" cy="31" rx="2.5" ry="3.5" fill="#e85d75" transform="rotate(144 38 28)"/>
  <ellipse cx="35" cy="31" rx="2.5" ry="3.5" fill="#e85d75" transform="rotate(216 38 28)"/>
  <ellipse cx="34" cy="26" rx="2.5" ry="3.5" fill="#e85d75" transform="rotate(288 38 28)"/>
  
  <!-- Terreno -->
  <ellipse cx="38" cy="45" rx="8" ry="2.5" fill="#8b6f47"/>
</svg>